#!OML:ASF E:\Mandelcareful walks\Project 1\Capture day 1\Session 1\Subject1.ASF
:FULLY-SPECIFIED
:DEGREES
2623
root 12.3539 15.8887 -4.46655 -336.04 95.0274 -343.234
lowerback 38.6537 1.76825 -2.6277
upperback 10.4275 2.5792 -0.899109
thorax -7.30537 1.81288 -0.656253
lowerneck -29.4025 5.45844 0.845096
upperneck 24.1307 9.20795 -5.61942
head 13.3325 3.28966 -0.525086
rclavicle 1.41137e-014 5.76476e-015
rhumerus -14.8234 0.450808 -81.5227
rradius 65.5792
rwrist -22.0702
rhand -14.2578 -25.4663
rfingers 7.12502
rthumb 11.8805 -55.1092
lclavicle 1.41137e-014 5.76476e-015
lhumerus -7.81406 -28.0769 76.97
lradius 68.5142
lwrist 28.1421
lhand -31.4269 -14.0604
lfingers 7.12502
lthumb -4.69537 15.8676
rfemur -39.3134 -16.6963 14.0832
rtibia 53.2152
rfoot -16.4479 -9.2127
rtoes -8.81517
lfemur -34.5371 10.0169 -23.1315
ltibia 55.7679
lfoot -25.8527 3.50259
ltoes 11.8754
2624
root 12.4051 15.8906 -4.47054 -336.828 94.7485 -343.947
lowerback 38.7748 1.78555 -2.67507
upperback 10.3051 2.55629 -0.928156
thorax -7.48008 1.79703 -0.661296
lowerneck -29.0224 5.59727 1.28584
upperneck 23.9988 9.36301 -6.12619
head 13.2701 3.34164 -0.768369
rclavicle -3.00165e-014 3.43897e-014
rhumerus -15.088 0.0133969 -81.4845
rradius 65.5508
rwrist -21.9877
rhand -14.1432 -25.5381
rfingers 7.12502
rthumb 11.991 -55.1746
lclavicle -3.00165e-014 3.43897e-014
lhumerus -8.13774 -28.1321 77.1749
lradius 68.5713
lwrist 28.1765
lhand -31.4885 -13.6516
lfingers 7.12502
lthumb -4.7548 16.2751
rfemur -39.7798 -16.461 14.0893
rtibia 50.6686
rfoot -16.0092 -9.12751
rtoes -8.81193
lfemur -34.0721 9.96822 -23.2294
ltibia 55.5364
lfoot -26.1344 3.76787
ltoes 12.1364
2625
root 12.4482 15.8968 -4.46926 -335.19 94.3002 -342.359
lowerback 38.7711 1.91757 -2.72422
upperback 10.1755 2.67145 -0.920328
thorax -7.62523 1.84049 -0.675879
lowerneck -28.6773 5.6726 1.47343
upperneck 23.7427 9.48304 -6.49856
head 13.1413 3.3781 -0.925008
rclavicle 8.94531e-015 -1.49089e-015
rhumerus -15.2926 -0.425666 -81.4226
rradius 65.5002
rwrist -21.9869
rhand -14.0463 -26.15
rfingers 7.12502
rthumb 12.0844 -55.7811
lclavicle 8.94531e-015 -1.49089e-015
lhumerus -8.33736 -28.2966 77.4161
lradius 68.4106
lwrist 28.1155
lhand -31.53 -13.7287
lfingers 7.12502
lthumb -4.79491 16.197
rfemur -40.4013 -15.9281 14.2542
rtibia 48.1406
rfoot -14.9849 -9.48036
rtoes -8.49502
lfemur -33.7941 10.129 -23.2023
ltibia 55.2751
lfoot -26.3171 3.99326
ltoes 12.5154
2626
root 12.502 15.9146 -4.46275 -335.306 94.1527 -342.371
lowerback 38.7245 1.88938 -2.65966
upperback 10.2652 2.67926 -0.856918
thorax -7.51227 1.84574 -0.640635
lowerneck -28.8528 5.55704 1.18902
upperneck 23.989 9.34454 -6.10975
head 13.2271 3.333 -0.753243
rclavicle -2.5842e-015 2.20651e-014
rhumerus -15.2206 -0.883722 -81.3083
rradius 65.4094
rwrist -21.9727
rhand -14.0687 -25.9837
rfingers 7.12502
rthumb 12.0629 -55.616
lclavicle -2.5842e-015 2.20651e-014
lhumerus -8.25261 -28.4888 77.596
lradius 68.2641
lwrist 28.1098
lhand -31.487 -13.8171
lfingers 7.12502
lthumb -4.75342 16.1096
rfemur -40.6346 -15.6145 14.3034
rtibia 45.694
rfoot -13.535 -10.1291
rtoes -7.85075
lfemur -33.2489 10.0811 -23.1396
ltibia 54.9369
lfoot -26.4924 4.29206
ltoes 12.2162
2627
root 12.562 15.9321 -4.45644 -336.899 93.9719 -343.763
lowerback 38.7475 1.8266 -2.58369
upperback 10.347 2.64062 -0.87846
thorax -7.42607 1.83311 -0.685986
lowerneck -28.8397 5.57275 1.28732
upperneck 24.0249 9.38281 -6.27408
head 13.2581 3.33507 -0.824939
rclavicle -2.23633e-014 -4.96962e-015
rhumerus -15.2388 -1.45037 -81.2846
rradius 65.3071
rwrist -21.8446
rhand -13.4707 -26.0617
rfingers 7.12502
rthumb 12.6394 -55.6593
lclavicle -2.23633e-014 -4.96962e-015
lhumerus -8.30135 -28.7301 77.7386
lradius 68.308
lwrist 28.1054
lhand -31.5462 -13.7066
lfingers 7.12502
lthumb -4.81054 16.2188
rfemur -40.6774 -15.3846 14.178
rtibia 43.3829
rfoot -11.5665 -10.6483
rtoes -7.17124
lfemur -32.5288 10.0331 -23.1914
ltibia 54.5497
lfoot -26.7033 4.63633
ltoes 11.7933
2628
root 12.62 15.9435 -4.44185 -338.34 93.7954 -345.124
lowerback 38.6798 1.76558 -2.63938
upperback 10.3492 2.54393 -0.863881
thorax -7.40267 1.78568 -0.601781
lowerneck -28.6738 5.69558 1.43116
upperneck 24.0849 9.55856 -6.44223
head 13.2787 3.40407 -0.880578
rclavicle 6.4605e-015 9.64106e-015
rhumerus -15.2315 -1.70521 -81.2873
rradius 65.0112
rwrist -21.8641
rhand -13.2727 -26.1603
rfingers 7.12502
rthumb 12.8303 -55.746
lclavicle 6.4605e-015 9.64106e-015
lhumerus -8.59142 -28.7687 77.9588
lradius 68.3173
lwrist 27.8898
lhand -31.7219 -13.7118
lfingers 7.12502
lthumb -4.98016 16.2097
rfemur -40.8388 -15.0826 14.0897
rtibia 41.2421
rfoot -9.32484 -10.8149
rtoes -7.49678
lfemur -31.9333 9.96 -23.2003
ltibia 54.1495
lfoot -26.8081 4.78857
ltoes 12.0679
2629
root 12.6781 15.9541 -4.42228 -341.482 93.6625 -348.274
lowerback 38.5579 1.69544 -2.80049
upperback 10.3298 2.39718 -0.816265
thorax -7.38773 1.71178 -0.407603
lowerneck -28.5962 5.81873 1.44134
upperneck 24.2142 9.77964 -6.53957
head 13.3356 3.48539 -0.87632
rclavicle -2.68359e-015 1.19271e-014
rhumerus -15.1846 -1.68971 -81.2001
rradius 64.6609
rwrist -22.1873
rhand -13.2921 -27.1086
rfingers 7.12502
rthumb 12.8116 -56.6954
lclavicle -2.68359e-015 1.19271e-014
lhumerus -8.85307 -28.6838 78.2665
lradius 68.2515
lwrist 27.6363
lhand -31.7249 -13.6595
lfingers 7.12502
lthumb -4.98314 16.2619
rfemur -41.0328 -14.8546 13.9094
rtibia 39.3335
rfoot -7.13595 -10.2113
rtoes -8.98347
lfemur -31.4628 9.80815 -23.288
ltibia 53.7824
lfoot -26.8491 4.91841
ltoes 12.3096
2630
root 12.7421 15.9671 -4.39938 -345.222 93.5548 -351.96
lowerback 38.5486 1.66101 -2.86701
upperback 10.2783 2.323 -0.797542
thorax -7.44283 1.67388 -0.325761
lowerneck -28.6167 5.8203 1.40287
upperneck 24.3326 9.82967 -6.58183
head 13.3925 3.49349 -0.875563
rclavicle -1.89839e-014 2.05742e-014
rhumerus -15.4269 -1.89518 -81.099
rradius 64.504
rwrist -22.3967
rhand -14.1439 -26.0878
rfingers 7.12502
rthumb 11.9904 -55.7244
lclavicle -1.89839e-014 2.05742e-014
lhumerus -9.08596 -28.8932 78.5701
lradius 68.32
lwrist 27.685
lhand -31.6072 -13.7069
lfingers 7.12502
lthumb -4.86942 16.2172
rfemur -41.0845 -14.6485 13.666
rtibia 37.6937
rfoot -5.07054 -9.24314
rtoes -10.693
lfemur -30.9403 9.67016 -23.3682
ltibia 53.4601
lfoot -27.0045 5.03133
ltoes 12.5632
2631
root 12.8087 15.9752 -4.3711 -349.435 93.4848 -356.138
lowerback 38.5622 1.63931 -2.86715
upperback 10.1777 2.27823 -0.817348
thorax -7.55769 1.64957 -0.332546
lowerneck -28.1411 5.93223 2.02319
upperneck 24.0296 9.89956 -7.2296
head 13.2613 3.51699 -1.22127
rclavicle -6.26172e-015 5.91384e-015
rhumerus -15.8207 -2.32766 -81.0598
rradius 64.4297
rwrist -22.2942
rhand -14.1055 -25.7944
rfingers 7.12502
rthumb 12.0274 -55.4288
lclavicle -6.26172e-015 5.91384e-015
lhumerus -9.40063 -29.3029 78.8358
lradius 68.5534
lwrist 28.0186
lhand -31.5083 -13.3587
lfingers 7.12502
lthumb -4.77399 16.5676
rfemur -41.1554 -14.3718 13.3648
rtibia 36.3581
rfoot -2.97191 -8.70954
rtoes -11.3511
lfemur -30.4521 9.49254 -23.4602
ltibia 53.1642
lfoot -27.1963 5.18508
ltoes 12.9797
2632
root 12.8782 15.9805 -4.34002 -353.83 93.563 -360.524
lowerback 38.4737 1.52433 -2.79501
upperback 10.1589 2.16203 -0.821007
thorax -7.54714 1.5946 -0.326666
lowerneck -28.2833 5.92542 2.02729
upperneck 24.2431 9.92346 -7.25299
head 13.3804 3.51336 -1.22372
rclavicle -5.07895e-014 -1.66979e-014
rhumerus -15.9546 -2.7169 -80.9983
rradius 64.2732
rwrist -22.1683
rhand -14.4094 -25.1778
rfingers 7.12502
rthumb 11.7343 -54.8291
lclavicle -5.07895e-014 -1.66979e-014
lhumerus -9.57047 -29.5264 79.0966
lradius 68.7906
lwrist 28.3688
lhand -31.2084 -12.1052
lfingers 7.12502
lthumb -4.48435 17.8274
rfemur -41.1831 -14.1713 13.0316
rtibia 35.4005
rfoot -0.854311 -8.61978
rtoes -10.9791
lfemur -30.0078 9.1974 -23.5566
ltibia 52.9056
lfoot -27.3213 5.41082
ltoes 12.9212
2633
root 12.9539 15.9871 -4.30297 -357.191 93.7845 -363.739
lowerback 38.4627 1.35118 -2.70817
upperback 10.2573 2.00846 -0.744245
thorax -7.43408 1.52743 -0.22842
lowerneck -28.8286 5.80601 1.47907
upperneck 24.6446 9.8586 -6.70749
head 13.5789 3.47927 -0.926008
rclavicle -1.03617e-014 2.38542e-015
rhumerus -15.805 -2.92437 -80.8514
rradius 63.9258
rwrist -22.2102
rhand -15.0545 -23.928
rfingers 7.12502
rthumb 11.1122 -53.6138
lclavicle -1.03617e-014 2.38542e-015
lhumerus -9.56437 -29.6201 79.3545
lradius 68.9546
lwrist 28.4929
lhand -30.7681 -11.0746
lfingers 7.12502
lthumb -4.05918 18.8664
rfemur -41.0005 -14.113 12.7844
rtibia 34.9273
rfoot 1.03382 -8.82062
rtoes -8.99574
lfemur -29.4117 8.84453 -23.5308
ltibia 52.6978
lfoot -27.505 5.52715
ltoes 12.506
2634
root 13.0249 15.9843 -4.26019 -360.69 93.8936 -367.256
lowerback 38.3229 1.26541 -2.72752
upperback 10.298 1.91196 -0.653874
thorax -7.34505 1.48025 -0.0806617
lowerneck -29.1297 5.72906 1.08191
upperneck 24.8585 9.84958 -6.40074
head 13.6822 3.46455 -0.737732
rclavicle 5.89521e-015 -1.83192e-014
rhumerus -15.8721 -3.04239 -80.6527
rradius 63.7583
rwrist -22.2861
rhand -15.1041 -23.0034
rfingers 7.12502
rthumb 11.0643 -52.6918
lclavicle 5.89521e-015 -1.83192e-014
lhumerus -9.61638 -29.7502 79.7165
lradius 68.9552
lwrist 28.3195
lhand -30.6684 -11.0898
lfingers 7.12502
lthumb -3.96289 18.8531
rfemur -41.1259 -14.1543 12.6974
rtibia 34.9611
rfoot 2.43326 -9.42314
rtoes -4.69031
lfemur -29.0993 8.57058 -23.5756
ltibia 52.5963
lfoot -27.7208 5.6733
ltoes 11.9534
